<svg width="664" height="665" viewBox="0 0 664 665" fill="none" xmlns="http://www.w3.org/2000/svg">
<path opacity="0.2" d="M663.459 504.085V333.877H663.999V331.998H663.459V161.791C663.449 120.049 647.205 79.9474 618.163 49.9658V46.8775H663.459V44.9858H619.475L661.709 2.52078L660.422 1.23396L618.201 43.699V2.1476H616.323V44.9858H613.131C583.581 16.7383 544.283 0.962883 503.404 0.937988H160.042C119.18 0.976116 79.9032 16.7505 50.3661 44.9858H47.162V2.1476H45.2961V43.6604L3.0755 1.19535L1.78868 2.48217L44.0092 44.9472H2.67659V46.826H45.2961V49.9658C16.25 79.9451 0.00579511 120.048 0 161.791V504.085C0.00579511 545.827 16.25 585.93 45.2961 615.909V619.049H2.67659V620.928H43.9706L1.75008 663.393L3.0369 664.68L45.2575 622.215V663.728H47.1234V620.889H50.3275C79.8742 649.134 119.167 664.909 160.042 664.937H503.404C544.27 664.902 583.552 649.128 613.093 620.889H616.284V663.728H618.163V622.215L660.383 664.68L661.67 663.393L619.437 620.928H663.999V619.049H618.163V615.909C647.198 585.923 663.441 545.825 663.459 504.085ZM661.58 504.085C661.577 544.662 646.041 583.698 618.163 613.181V451.904H660.911V450.038H618.163V333.877H661.58V504.085ZM449.525 450.038L448.238 448.751C450.374 446.581 452.446 444.35 454.453 442.06V450.038H449.525ZM454.453 451.917V454.993L451.391 451.917H454.453ZM210.073 450.038V443.282C211.746 445.148 213.471 446.963 215.221 448.751L213.934 450.038H210.073ZM212.068 451.917L210.073 453.899V451.904L212.068 451.917ZM213.934 215.837L215.221 217.124C213.471 218.912 211.746 220.74 210.073 222.593V215.837H213.934ZM210.073 213.958V211.977L212.068 213.971L210.073 213.958ZM454.453 215.837V223.815C452.446 221.525 450.374 219.294 448.238 217.124L449.525 215.837H454.453ZM451.391 213.958L454.453 210.883V213.958H451.391ZM454.453 331.985H450.052C449.857 301.112 437.666 271.524 416.055 249.474L446.938 218.462C449.512 221.096 452.026 223.828 454.479 226.659L454.453 331.985ZM456.319 228.885C480.321 257.894 493.511 294.334 493.637 331.985H456.319V228.885ZM414.729 250.761C436.001 272.447 448 301.558 448.187 331.934H333.981L414.729 250.761ZM332.669 330.544V215.837C362.941 216.048 391.925 228.115 413.404 249.449L332.669 330.544ZM330.79 330.544L250.042 249.359C271.545 228.064 300.528 216.032 330.79 215.837V330.544ZM329.503 331.831H215.272C215.466 301.456 227.464 272.348 248.729 250.658L329.503 331.831ZM329.503 333.71L248.755 414.882C227.49 393.193 215.492 364.084 215.298 333.71H329.503ZM330.79 334.997V450.038C300.512 449.826 271.523 437.754 250.042 416.414L330.79 334.997ZM332.669 334.997L413.404 416.169C391.969 437.601 362.979 449.763 332.669 450.038V334.997ZM333.956 333.71H448.148C447.961 364.086 435.962 393.197 414.691 414.882L333.956 333.71ZM445.587 217.124L414.704 248.149C397.752 231.332 376.09 220.063 352.589 215.837H444.275L445.587 217.124ZM332.669 213.958V170.116C373.451 170.316 412.636 185.99 442.306 213.971L332.669 213.958ZM330.79 213.958H221.153C250.817 185.969 290.006 170.294 330.79 170.103V213.958ZM310.857 215.837C287.349 220.064 265.678 231.332 248.717 248.149L217.833 217.124L219.12 215.837H310.857ZM216.546 218.411L247.43 249.423C225.809 271.466 213.615 301.058 213.432 331.934H210.099V225.437C212.171 223.056 214.32 220.727 216.546 218.475V218.411ZM208.208 331.934H169.77C169.914 293.706 183.523 256.751 208.208 227.56V331.934ZM208.208 333.813V438.187C183.523 408.996 169.914 372.041 169.77 333.813H208.208ZM210.073 333.813H213.406C213.587 364.685 225.781 394.274 247.404 416.311L216.52 447.336C214.294 445.084 212.145 442.755 210.086 440.374L210.073 333.813ZM217.872 448.751L248.755 417.726C265.707 434.537 287.362 445.804 310.857 450.038H219.184L217.872 448.751ZM330.79 451.917V495.772C290.006 495.581 250.817 479.906 221.153 451.917H330.79ZM332.669 451.917H442.306C412.636 479.898 373.451 495.572 332.669 495.772V451.917ZM352.589 450.038C376.099 445.817 397.771 434.548 414.729 417.726L445.613 448.751L444.326 450.038H352.589ZM446.913 447.465L416.029 416.439C437.643 394.397 449.835 364.812 450.027 333.941H454.428V439.268C452.026 442.047 449.521 444.779 446.913 447.465ZM456.319 333.941H493.637C493.511 371.592 480.321 408.032 456.319 437.041V333.941ZM495.554 332.063C495.411 293.201 481.511 255.645 456.319 226.054V215.837H555.276C573.903 251.725 583.668 291.551 583.753 331.985L495.554 332.063ZM456.319 214.035V209.068L510.597 154.52C527.98 172.126 542.698 192.176 554.285 214.035H456.319ZM456.319 206.417V112.66C475.677 123.752 493.482 137.355 509.272 153.117L456.319 206.417ZM454.453 208.296L448.753 214.035H445.034C414.881 184.857 374.627 168.446 332.669 168.225V79.5884C375.332 79.6821 417.26 90.7046 454.453 111.605V208.296ZM330.79 168.225C288.842 168.423 248.589 184.806 218.425 213.958H214.706L210.073 209.3V110.987C247.008 90.475 288.542 79.6676 330.79 79.5756V168.225ZM208.208 207.434L154.161 153.117C170.252 137.067 188.431 123.255 208.208 112.055V207.434ZM208.208 210.098V213.958H109.122C120.705 192.096 135.424 172.045 152.81 154.443L208.208 210.098ZM208.208 215.85V224.729C182.35 254.5 168.043 292.566 167.891 331.998H79.7056C79.789 291.56 89.5537 251.729 108.183 215.837L208.208 215.85ZM167.891 333.877C168.043 373.309 182.35 411.376 208.208 441.146V450.038H108.183C89.5557 414.15 79.7911 374.324 79.7056 333.89L167.891 333.877ZM208.208 451.904V455.765L152.874 511.394C135.488 493.791 120.77 473.741 109.187 451.878L208.208 451.904ZM208.208 458.441V553.82C188.431 542.62 170.252 528.808 154.161 512.758L208.208 458.441ZM210.073 456.562L214.706 451.904H218.425C248.587 481.061 288.84 497.449 330.79 497.651V586.313C288.542 586.21 247.009 575.398 210.073 554.888V456.562ZM332.669 497.651C374.617 497.45 414.869 481.067 445.034 451.917H448.753L454.453 457.656V554.271C417.259 575.169 375.332 586.195 332.669 586.3V497.651ZM456.319 459.535L509.272 512.771C493.476 528.526 475.672 542.129 456.319 553.228V459.535ZM456.319 456.884V451.917H554.285C542.698 473.777 527.98 493.827 510.597 511.432L456.319 456.884ZM456.319 450.038V439.898C481.511 410.307 495.411 372.752 495.554 333.89H583.753C583.668 374.324 573.903 414.15 555.276 450.038H456.319ZM585.619 333.89H616.284V450.038H557.386C575.862 414.1 585.539 374.287 585.619 333.877V333.89ZM585.619 332.011C585.541 291.597 575.864 251.78 557.386 215.837H616.284V331.985L585.619 332.011ZM556.395 213.984C544.651 191.619 529.664 171.113 511.923 153.13L615.1 49.4511L615.19 49.5283C615.576 49.9272 615.962 50.3519 616.348 50.8151V213.971L556.395 213.984ZM613.685 48.1514L510.597 151.792C494.435 135.66 476.179 121.771 456.319 110.498V46.8646H612.346L613.685 48.1514ZM454.453 109.456C417.202 88.7297 375.298 77.8021 332.669 77.6968V46.8131H454.453V109.456ZM332.669 44.9858V2.81674H454.453V44.9858H332.669ZM330.79 44.9858H210.073V2.81674H330.79V44.9858ZM330.79 46.8646V77.7483C288.576 77.8471 247.064 88.5603 210.073 108.902V46.8646H330.79ZM208.208 109.919C187.938 121.29 169.32 135.383 152.874 151.805L49.7871 48.1643L51.0739 46.8775H208.208V109.919ZM48.333 49.5283L48.4102 49.4511L151.536 153.117C133.787 171.096 118.796 191.603 107.051 213.971H47.162V50.7637C47.6124 50.3519 47.9341 49.9272 48.333 49.5283ZM106.073 215.837C87.5987 251.772 77.9223 291.58 77.8398 331.985H47.162V215.837H106.073ZM77.8398 333.864C77.9183 374.278 87.5948 414.096 106.073 450.038H47.162V333.877L77.8398 333.864ZM107.051 451.891C118.796 474.259 133.787 494.766 151.536 512.745L48.4102 616.424L48.333 616.347C47.9341 615.948 47.5609 615.523 47.162 615.06V451.904L107.051 451.891ZM49.7742 617.724L152.861 514.083C169.311 530.506 187.927 544.602 208.195 555.982V619.036H51.1125L49.7742 617.724ZM210.073 557.025C247.064 577.366 288.576 588.08 330.79 588.178V619.062H210.073V557.025ZM330.79 620.889V663.058H210.073V620.889H330.79ZM332.669 620.889H454.453V663.058H332.669V620.889ZM332.669 619.011V588.127C375.298 588.022 417.202 577.094 454.453 556.368V618.959L332.669 619.011ZM456.319 555.377C476.179 544.104 494.435 530.216 510.597 514.083L613.685 617.724L612.398 619.011H456.319V555.377ZM615.1 616.347L615.01 616.424L511.897 512.758C529.639 494.775 544.625 474.269 556.37 451.904H616.258V615.112L615.1 616.347ZM661.58 161.791V331.998H618.163V215.837H660.911V213.958H618.163V52.7325C646.032 82.2061 661.567 121.227 661.58 161.791ZM610.39 44.9472H456.319V2.81674H503.404C543.114 2.84607 581.34 17.9129 610.39 44.9858V44.9472ZM160.003 2.77814H208.208V44.9472H53.0685C82.1211 17.8902 120.341 2.83755 160.042 2.81674L160.003 2.77814ZM1.86589 504.085V161.791C1.87391 121.212 17.4138 82.1759 45.2961 52.6939V213.932H2.57364V215.837H45.2961V331.985H2.41922V333.864H45.2961V450.038H2.57364V451.917H45.2961V613.156C17.4199 583.68 1.88049 544.654 1.86589 504.085ZM53.0685 620.928H208.208V663.097H160.042C120.331 663.055 82.1092 647.975 53.0685 620.889V620.928ZM503.456 663.097H456.319V620.889H610.39C581.338 647.96 543.114 663.027 503.404 663.058L503.456 663.097Z" fill="url(#paint0_radial_415_11747)"/>
<mask id="mask0_415_11747" style="mask-type:alpha" maskUnits="userSpaceOnUse" x="-13" y="0" width="592" height="665">
<rect x="-12.7969" width="591.785" height="664.938" fill="url(#paint1_linear_415_11747)"/>
</mask>
<g mask="url(#mask0_415_11747)">
<g filter="url(#filter0_b_415_11747)">
<path d="M82.8643 584.71C82.8643 579.582 82.8643 577.019 83.8779 575.067C84.7321 573.423 86.0729 572.082 87.7173 571.228C89.6687 570.214 92.2324 570.214 97.3597 570.214H147.148C152.276 570.214 154.839 570.214 156.791 571.228C158.435 572.082 159.776 573.423 160.63 575.067C161.644 577.019 161.644 579.582 161.644 584.71V634.499C161.644 639.626 161.644 642.19 160.63 644.141C159.776 645.785 158.435 647.126 156.791 647.98C154.839 648.994 152.276 648.994 147.148 648.994H97.3597C92.2324 648.994 89.6687 648.994 87.7173 647.98C86.0729 647.126 84.7321 645.785 83.8779 644.141C82.8643 642.19 82.8643 639.626 82.8643 634.499V584.71Z" fill="white" fill-opacity="0.1"/>
<path d="M147.148 569.745H97.3597H97.3374C94.7926 569.745 92.8539 569.745 91.3087 569.874C89.7534 570.003 88.5549 570.264 87.5012 570.812C85.7711 571.711 84.3605 573.121 83.4618 574.851C82.9144 575.905 82.6528 577.104 82.5236 578.659C82.3953 580.204 82.3953 582.143 82.3953 584.687V584.71V634.499V634.521C82.3953 637.066 82.3953 639.004 82.5236 640.55C82.6528 642.105 82.9144 643.303 83.4618 644.357C84.3605 646.087 85.7711 647.498 87.5012 648.396C88.5549 648.944 89.7534 649.205 91.3087 649.335C92.8538 649.463 94.7924 649.463 97.3371 649.463H97.3597H147.148H147.171C149.716 649.463 151.654 649.463 153.199 649.335C154.755 649.205 155.953 648.944 157.007 648.396C158.737 647.498 160.148 646.087 161.046 644.357C161.594 643.303 161.855 642.105 161.985 640.55C162.113 639.004 162.113 637.066 162.113 634.521V634.499V584.71V584.687C162.113 582.143 162.113 580.204 161.985 578.659C161.855 577.104 161.594 575.905 161.046 574.851C160.148 573.121 158.737 571.711 157.007 570.812C155.953 570.264 154.755 570.003 153.199 569.874C151.654 569.745 149.716 569.745 147.171 569.745H147.148Z" stroke="white" stroke-opacity="0.2" stroke-width="0.937853"/>
</g>
<g clip-path="url(#clip0_415_11747)">
<path d="M98.4551 582.407H146.051L141.722 631.279L122.201 636.802L102.789 631.277L98.4551 582.407ZM137.189 592.409L107.317 592.402L107.8 598.345L130.748 598.349L130.17 604.505H115.12L115.664 610.337H129.676L128.846 618.321L122.251 620.144L115.551 618.308L115.125 613.525H109.21L109.867 622.263L122.253 626.123L134.431 622.655L137.189 592.411V592.409Z" fill="white"/>
</g>
<g filter="url(#filter1_b_415_11747)">
<path d="M359.185 66.2432H309.479C301.709 66.2432 295.411 72.5415 295.411 80.311V130.017C295.411 137.787 301.709 144.085 309.479 144.085H359.185C366.955 144.085 373.253 137.787 373.253 130.017V80.311C373.253 72.5415 366.955 66.2432 359.185 66.2432Z" fill="white" fill-opacity="0.1"/>
<path d="M359.185 65.7742H309.479C301.451 65.7742 294.942 72.2825 294.942 80.311V130.017C294.942 138.046 301.451 144.554 309.479 144.554H359.185C367.214 144.554 373.722 138.046 373.722 130.017V80.311C373.722 72.2826 367.214 65.7742 359.185 65.7742Z" stroke="white" stroke-opacity="0.2" stroke-width="0.937853"/>
</g>
<path d="M347.7 127.057C349.268 129.617 351.308 131.499 354.916 131.499C357.947 131.499 359.883 129.984 359.883 127.891C359.883 125.383 357.894 124.494 354.558 123.035L352.729 122.251C347.451 120.002 343.944 117.185 343.944 111.229C343.944 105.743 348.124 101.567 354.657 101.567C359.307 101.567 362.651 103.186 365.06 107.424L359.364 111.081C358.11 108.832 356.757 107.946 354.657 107.946C352.514 107.946 351.156 109.305 351.156 111.081C351.156 113.275 352.515 114.164 355.654 115.523L357.482 116.306C363.697 118.971 367.206 121.688 367.206 127.797C367.206 134.383 362.033 137.991 355.085 137.991C348.292 137.991 343.903 134.753 341.756 130.51L347.7 127.057ZM321.861 127.691C323.01 129.73 324.055 131.453 326.568 131.453C328.971 131.453 330.487 130.513 330.487 126.857V101.985H337.802V126.956C337.802 134.53 333.361 137.977 326.879 137.977C321.023 137.977 317.631 134.946 315.906 131.296L321.861 127.691Z" fill="white"/>
<g filter="url(#filter2_b_415_11747)">
<rect x="131.038" y="25.6665" width="78.7796" height="78.7796" rx="15.0056" fill="white" fill-opacity="0.1"/>
<rect x="130.569" y="25.1976" width="79.7175" height="79.7175" rx="15.4746" stroke="white" stroke-opacity="0.2" stroke-width="0.937853"/>
</g>
<path d="M170.251 75.8998C186.823 76.1697 200.337 71.5352 200.434 65.5484C200.532 59.5616 187.176 54.4895 170.604 54.2196C154.031 53.9497 140.518 58.5842 140.42 64.571C140.323 70.5579 153.678 75.6299 170.251 75.8998Z" stroke="white" stroke-width="2.73905"/>
<path d="M160.416 70.3146C168.481 84.0287 179.501 92.7918 185.03 89.8876C190.558 86.9834 188.502 73.5117 180.437 59.7977C172.372 46.0837 161.352 37.3206 155.823 40.2248C150.295 43.1289 152.351 56.6006 160.416 70.3146Z" stroke="white" stroke-width="2.73905"/>
<path d="M160.594 59.4744C152.087 72.9185 149.593 86.3161 155.024 89.3988C160.455 92.4814 171.755 84.0818 180.262 70.6377C188.769 57.1935 191.263 43.7959 185.832 40.7133C180.401 37.6306 169.101 46.0303 160.594 59.4744Z" stroke="white" stroke-width="2.73905"/>
<g filter="url(#filter3_b_415_11747)">
<path fill-rule="evenodd" clip-rule="evenodd" d="M181.769 65.3149C180.993 63.7267 180.128 62.1146 179.176 60.4962C178.225 58.8792 177.234 57.3351 176.218 55.8747C174.377 55.714 172.47 55.6142 170.513 55.5823C168.557 55.5505 166.647 55.5882 164.802 55.6888C163.738 57.1153 162.698 58.6263 161.695 60.2115C160.691 61.798 159.774 63.3811 158.946 64.9432C159.722 66.5311 160.587 68.143 161.539 69.7611C162.491 71.3806 163.484 72.9271 164.502 74.3895C166.342 74.55 168.248 74.6497 170.202 74.6815C172.157 74.7134 174.065 74.6758 175.909 74.5753C176.974 73.1468 178.017 71.6335 179.021 70.0458C180.025 68.4595 180.942 66.8767 181.769 65.3149Z" fill="white" fill-opacity="0.2"/>
</g>
<path d="M170.365 70.3479C173.454 70.3982 175.996 68.0701 176.044 65.1479C176.091 62.2258 173.626 59.8162 170.538 59.7659C167.449 59.7156 164.907 62.0437 164.859 64.9658C164.812 67.8879 167.277 70.2976 170.365 70.3479Z" fill="white"/>
<g filter="url(#filter4_b_415_11747)">
<rect x="415.767" y="332.938" width="78.7797" height="78.7797" rx="14.0678" transform="rotate(0.656233 415.767 332.938)" fill="white" fill-opacity="0.1"/>
<rect x="415.303" y="332.464" width="79.7175" height="79.7175" rx="14.5367" transform="rotate(0.656233 415.303 332.464)" stroke="white" stroke-opacity="0.2" stroke-width="0.937853"/>
</g>
<path  fill="white"/>
<path d="M117.688 98.242c-6.973-.191-12.297.461-16.852 2.379-1.293.547-3.355.559-3.566 2.18.711.746.82 1.859 1.387 2.777 1.086 1.754 2.922 4.113 4.559 5.352 1.789 1.348 3.633 2.793 5.551 3.961 3.414 2.082 7.223 3.27 10.504 5.352 1.938 1.23 3.859 2.777 5.75 4.164.934.684 1.563 1.75 2.773 2.18v-.195c-.637-.812-.801-1.93-1.387-2.777l-2.578-2.578c-2.52-3.344-5.719-6.281-9.117-8.719-2.711-1.949-8.781-4.578-9.91-7.73l-.199-.199c1.922-.219 4.172-.914 5.949-1.391 2.98-.797 5.645-.59 8.719-1.387l4.164-1.187v-.793c-1.555-1.594-2.664-3.707-4.359-5.152-4.441-3.781-9.285-7.555-14.273-10.703-2.766-1.746-6.184-2.883-9.117-4.363-.988-.496-2.719-.758-3.371-1.586-1.539-1.961-2.379-4.449-3.566-6.738-2.488-4.793-4.93-10.023-7.137-15.066-1.504-3.437-2.484-6.828-4.359-9.91-9-14.797-18.687-23.73-33.695-32.508-3.195-1.867-7.039-2.605-11.102-3.57l-6.543-.395c-1.332-.555-2.715-2.184-3.965-2.977C16.977 3.52 4.223-3.312.539 5.672-1.785 11.34 4.016 16.871 6.09 19.746c1.457 2.012 3.32 4.273 4.359 6.539.688 1.492.805 2.984 1.391 4.559 1.438 3.883 2.695 8.109 4.559 11.695.941 1.816 1.98 3.727 3.172 5.352.727.996 1.98 1.438 2.18 2.973-1.227 1.715-1.297 4.375-1.984 6.543-3.098 9.77-1.926 21.91 2.578 29.137 1.383 2.223 4.641 6.98 9.117 5.156 3.918-1.598 3.043-6.539 4.164-10.902.254-.988.098-1.715.594-2.379v.199l3.57 7.133c2.641 4.254 7.324 8.699 11.297 11.699 2.059 1.555 3.68 4.242 6.344 5.152v-.199h-.199c-.516-.805-1.324-1.137-1.98-1.781-1.551-1.523-3.277-3.414-4.559-5.156-3.613-4.902-6.805-10.27-9.711-15.855-1.391-2.668-2.598-5.609-3.77-8.324-.453-1.047-.445-2.633-1.387-3.172-1.281 1.988-3.172 3.598-4.164 5.945-1.582 3.754-1.789 8.336-2.375 13.082-.348.125-.195.039-.398.199-2.762-.668-3.73-3.508-4.758-5.949-2.594-6.164-3.078-16.09-.793-23.191.59-1.836 3.262-7.617 2.18-9.316-.516-1.691-2.219-2.672-3.172-3.965-1.18-1.598-2.355-3.703-3.172-5.551-2.125-4.805-3.113-10.203-5.352-15.062-1.07-2.324-2.875-4.676-4.359-6.738-1.645-2.289-3.484-3.977-4.758-6.742-.453-.984-1.066-2.559-.398-3.566.215-.684.516-.969 1.191-1.191 1.148-.887 4.352.297 5.547.793 3.18 1.32 5.832 2.578 8.527 4.363 1.289.855 2.598 2.512 4.16 2.973h1.785c2.789.641 5.914.195 8.523.988 4.609 1.402 8.738 3.582 12.488 5.949 11.422 7.215 20.766 17.48 27.156 29.734 1.027 1.973 1.473 3.852 2.379 5.945 1.824 4.219 4.125 8.559 5.941 12.688 1.816 4.113 3.582 8.27 6.148 11.695 1.348 1.801 6.551 2.766 8.918 3.766 1.66.699 4.379 1.43 5.949 2.379 3 1.809 5.906 3.965 8.723 5.945 1.402.992 5.73 3.168 5.945 4.957zm-88.605-75.52c-1.453-.027-2.48.156-3.566.395v.199h.195c.695 1.422 1.918 2.34 2.777 3.566l1.98 4.164.199-.195c1.227-.867 1.789-2.25 1.781-4.363-.492-.52-.562-1.164-.992-1.785-.562-.824-1.66-1.289-2.375-1.98zm0 0" fill="white" transform="translate(425, 345) scale(.5)"/>
<g  filter="url(#filter5_b_415_11747)">
<rect x="210.412" y="166" width="78.7797" height="78.7797" rx="14.0678" fill="white" fill-opacity="0.1"/>
<rect x="209.943" y="165.531" width="79.7175" height="79.7175" rx="14.5367" stroke="white" stroke-opacity="0.2" stroke-width="0.937853"/>
</g>

<path d="M124.742 58.378L69.625 3.264c-3.172-3.174-8.32-3.174-11.497 0L46.685 14.71l14.518 14.518c3.375-1.139 7.243-.375 9.932 2.314a9.66 9.66 0 012.293 9.993L87.42 55.529c3.385-1.167 7.292-.413 9.994 2.295 3.78 3.777 3.78 9.9 0 13.679a9.673 9.673 0 01-13.683 0 9.677 9.677 0 01-2.105-10.521L68.578 47.933l-.002 34.341a9.708 9.708 0 012.559 1.828c3.779 3.777 3.779 9.898 0 13.683-3.779 3.777-9.904 3.777-13.679 0-3.778-3.784-4.088-9.905-.311-13.683.934-.933 1.855-1.638 2.855-2.11V47.333c-1-.472-1.92-1.172-2.856-2.111-2.861-2.86-3.396-7.06-1.928-10.576L40.983 20.333 3.229 58.123c-3.175 3.177-3.155 8.325.02 11.5l55.126 55.114c3.173 3.174 8.325 3.174 11.503 0l54.86-54.858c3.175-3.176 3.178-8.327.004-11.501z" fill="white" transform="translate(220, 174) scale(.5)"/>
<g   filter="url(#filter6_b_415_11747)">
<rect x="360.62" y="216.795" width="78.7797" height="78.7797" rx="14.0678" fill="white" fill-opacity="0.1"/>
<rect x="360.151" y="216.326" width="79.7175" height="79.7175" rx="14.5367" stroke="white" stroke-opacity="0.2" stroke-width="0.937853"/>
</g>
<g clip-path="" transform="translate(370, 235) scale(.5)">

<path fill="white" d="M1.219 56.156c0 .703.207 1.167.323 1.618.756 2.933 2.381 5.45 4.309 7.746 2.746 3.272 6.109 5.906 9.554 8.383 2.988 2.148 6.037 4.248 9.037 6.38.515.366 1.002.787 1.561 1.236-.481.26-.881.489-1.297.7-3.959 2.008-7.768 4.259-11.279 6.986-2.116 1.644-4.162 3.391-5.607 5.674-2.325 3.672-3.148 7.584-1.415 11.761.506 1.22 1.278 2.274 2.367 3.053.353.252.749.502 1.162.6 1.058.249 2.136.412 3.207.609l3.033-.002c3.354-.299 6.407-1.448 9.166-3.352 4.312-2.976 7.217-6.966 8.466-12.087.908-3.722.945-7.448-.125-11.153a11.696 11.696 0 00-.354-1.014c-.13-.333-.283-.657-.463-1.072l6.876-3.954.103.088c-.125.409-.258.817-.371 1.23-.817 2.984-1.36 6.02-1.165 9.117.208 3.3 1.129 6.389 3.061 9.146 1.562 2.23 5.284 2.313 6.944.075.589-.795 1.16-1.626 1.589-2.513 1.121-2.315 2.159-4.671 3.23-7.011l.187-.428c-.077 1.108-.167 2.081-.208 3.055-.064 1.521.025 3.033.545 4.48.445 1.238 1.202 2.163 2.62 2.326.97.111 1.743-.333 2.456-.896a10.384 10.384 0 002.691-3.199c1.901-3.491 3.853-6.961 5.576-10.54 1.864-3.871 3.494-7.855 5.225-11.792l.286-.698c.409 1.607.694 3.181 1.219 4.671.61 1.729 1.365 3.417 2.187 5.058.389.775.344 1.278-.195 1.928-2.256 2.72-4.473 5.473-6.692 8.223-.491.607-.98 1.225-1.389 1.888a3.701 3.701 0 00-.48 1.364 1.737 1.737 0 001.383 1.971 9.661 9.661 0 002.708.193c3.097-.228 5.909-1.315 8.395-3.157 3.221-2.386 4.255-5.642 3.475-9.501-.211-1.047-.584-2.065-.947-3.074-.163-.455-.174-.774.123-1.198 2.575-3.677 4.775-7.578 6.821-11.569.081-.157.164-.314.306-.482.663 3.45 1.661 6.775 3.449 9.792-.912.879-1.815 1.676-2.632 2.554-1.799 1.934-3.359 4.034-4.173 6.595-.35 1.104-.619 2.226-.463 3.405.242 1.831 1.742 3.021 3.543 2.604 3.854-.892 7.181-2.708 9.612-5.925 1.636-2.166 1.785-4.582 1.1-7.113-.188-.688-.411-1.365-.651-2.154.951-.295 1.878-.649 2.837-.868 4.979-1.136 9.904-.938 14.702.86 2.801 1.05 5.064 2.807 6.406 5.571 1.639 3.379.733 6.585-2.452 8.721-.297.199-.637.356-.883.605a.869.869 0 00-.205.67c.021.123.346.277.533.275 1.047-.008 1.896-.557 2.711-1.121 2.042-1.413 3.532-3.314 3.853-5.817l.063-.188-.077-1.63c-.031-.094.023-.187.016-.258-.434-3.645-2.381-6.472-5.213-8.688-3.28-2.565-7.153-3.621-11.249-3.788a25.401 25.401 0 00-9.765 1.503c-.897.325-1.786.71-2.688 1.073-.121-.219-.251-.429-.358-.646-.926-1.896-2.048-3.708-2.296-5.882-.176-1.544-.392-3.086-.025-4.613.353-1.469.813-2.913 1.246-4.362.223-.746.066-1.164-.646-1.5a2.854 2.854 0 00-.786-.258c-1.75-.254-3.476-.109-5.171.384-.6.175-1.036.511-1.169 1.175-.076.381-.231.746-.339 1.122-.443 1.563-.757 3.156-1.473 4.645-1.794 3.735-3.842 7.329-5.938 10.897-.227.385-.466.763-.752 1.23-.736-1.54-1.521-2.922-1.759-4.542-.269-1.832-.481-3.661-.025-5.479.339-1.356.782-2.687 1.19-4.025.193-.636.104-.97-.472-1.305-.291-.169-.62-.319-.948-.368a11.643 11.643 0 00-5.354.438c-.543.176-.828.527-.994 1.087-.488 1.652-.904 3.344-1.589 4.915-2.774 6.36-5.628 12.687-8.479 19.013-.595 1.321-1.292 2.596-1.963 3.882-.17.326-.418.613-.63.919-.17-.201-.236-.339-.235-.477.005-.813-.092-1.65.063-2.436a172.189 172.189 0 011.578-7.099c.47-1.946 1.017-3.874 1.538-5.807.175-.647.178-1.252-.287-1.796-.781-.911-2.413-1.111-3.381-.409l-.428.242.083-.69c.204-1.479.245-2.953-.161-4.41-.506-1.816-1.802-2.861-3.686-2.803-.878.027-1.8.177-2.613.497-3.419 1.34-6.048 3.713-8.286 6.568a2.592 2.592 0 01-.757.654c-2.893 1.604-5.795 3.188-8.696 4.778l-3.229 1.769c-.866-.826-1.653-1.683-2.546-2.41-2.727-2.224-5.498-4.393-8.244-6.592-2.434-1.949-4.792-3.979-6.596-6.56-1.342-1.92-2.207-4.021-2.29-6.395-.105-3.025.753-5.789 2.293-8.362 1.97-3.292 4.657-5.934 7.611-8.327 3.125-2.53 6.505-4.678 10.008-6.639 4.901-2.743 9.942-5.171 15.347-6.774 5.542-1.644 11.165-2.585 16.965-1.929 2.28.258 4.494.78 6.527 1.895 1.557.853 2.834 1.97 3.428 3.716.586 1.718.568 3.459.162 5.204-.825 3.534-2.76 6.447-5.195 9.05-3.994 4.267-8.866 7.172-14.351 9.091a39.478 39.478 0 01-9.765 2.083c-2.729.229-5.401-.013-7.985-.962-1.711-.629-3.201-1.591-4.399-2.987-.214-.25-.488-.521-.887-.287-.391.23-.46.602-.329.979.219.626.421 1.278.762 1.838.857 1.405 2.107 2.424 3.483 3.298 2.643 1.681 5.597 2.246 8.66 2.377 4.648.201 9.183-.493 13.654-1.74 6.383-1.78 11.933-4.924 16.384-9.884 3.706-4.13 6.353-8.791 6.92-14.419.277-2.747-.018-5.438-1.304-7.944-1.395-2.715-3.613-4.734-6.265-6.125C68.756 18.179 64.588 17 60.286 17h-4.31c-5.21 0-10.247 1.493-15.143 3.274-3.706 1.349-7.34 2.941-10.868 4.703-7.683 3.839-14.838 8.468-20.715 14.833-2.928 3.171-5.407 6.67-6.833 10.79a40.494 40.494 0 00-1.111 3.746m27.839 36.013c-.333 4.459-2.354 8.074-5.657 11.002-1.858 1.646-3.989 2.818-6.471 3.23-.9.149-1.821.185-2.694-.188-1.245-.532-1.524-1.637-1.548-2.814-.037-1.876.62-3.572 1.521-5.186 1.176-2.104 2.9-3.708 4.741-5.206 2.9-2.361 6.046-4.359 9.268-6.245l.243-.1c.498 1.84.735 3.657.597 5.507zM54.303 70.98c-.235 1.424-.529 2.849-.945 4.229-1.438 4.777-3.285 9.406-5.282 13.973-.369.845-.906 1.616-1.373 2.417a1.689 1.689 0 01-.283.334c-.578.571-1.126.541-1.418-.206-.34-.868-.549-1.797-.729-2.716-.121-.617-.092-1.265-.13-1.897.039-4.494 1.41-8.578 3.736-12.38.959-1.568 2.003-3.062 3.598-4.054a6.27 6.27 0 011.595-.706c.85-.239 1.372.154 1.231 1.006zm17.164 21.868l6.169-7.203c.257 2.675-4.29 8.015-6.169 7.203zm19.703-4.847c-.436.25-.911.43-1.358.661-.409.212-.544-.002-.556-.354a2.385 2.385 0 01.093-.721c.833-2.938 2.366-5.446 4.647-7.486l.16-.082c1.085 3.035-.169 6.368-2.986 7.982z" transform="translayte(100, 100) scale(.5)"/>
</g>
<g filter="url(#filter7_b_415_11747)">
<path d="M322.855 303.864H260.217C256.019 303.864 252.615 307.268 252.615 311.466V374.104C252.615 378.303 256.019 381.706 260.217 381.706H322.855C327.054 381.706 330.457 378.303 330.457 374.104V311.466C330.457 307.268 327.054 303.864 322.855 303.864Z" fill="white" fill-opacity="0.1"/>
<path d="M322.855 303.395H260.217C255.76 303.395 252.146 307.009 252.146 311.466V374.104C252.146 378.562 255.76 382.175 260.217 382.175H322.855C327.313 382.175 330.926 378.562 330.926 374.104V311.466C330.926 307.009 327.313 303.395 322.855 303.395Z" stroke="white" stroke-opacity="0.2" stroke-width="0.937853"/>
</g>
<path fill-rule="evenodd" clip-rule="evenodd" d="M300.517 365.852V373.454C301.748 374.093 303.253 374.564 304.926 374.883C306.598 375.202 308.422 375.354 310.247 375.354C312.071 375.354 313.744 375.187 315.416 374.838C317.088 374.488 318.457 373.91 319.673 373.165C320.904 372.359 321.954 371.341 322.562 369.972C323.17 368.604 323.641 367.084 323.641 365.107C323.641 363.724 323.428 362.523 323.018 361.458C322.607 360.394 322.014 359.482 321.193 358.722C320.418 357.916 319.521 357.201 318.457 356.593C317.392 355.985 316.176 355.347 314.808 354.769C313.804 354.358 312.983 353.963 312.071 353.568C311.281 353.173 310.597 352.777 310.095 352.382C309.532 351.971 309.107 351.546 308.803 351.105C308.498 350.649 308.346 350.147 308.346 349.585C308.346 349.068 308.482 348.596 308.757 348.171C309.032 347.745 309.411 347.395 309.897 347.091C310.384 346.787 310.992 346.559 311.722 346.392C312.436 346.225 313.227 346.149 314.154 346.149C314.793 346.149 315.462 346.196 316.131 346.291C316.83 346.387 317.545 346.535 318.259 346.732C318.974 346.93 319.673 347.173 320.388 347.477C321.057 347.781 321.68 348.131 322.212 348.526V341.381C321.057 340.94 319.779 340.605 318.411 340.393C317.043 340.18 315.522 340.073 313.698 340.073C311.874 340.073 310.201 340.271 308.529 340.651C306.856 341.031 305.488 341.639 304.272 342.475C303.04 343.296 302.143 344.3 301.383 345.668C300.669 346.945 300.319 348.405 300.319 350.229C300.319 352.51 300.973 354.486 302.295 356.006C303.603 357.679 305.64 358.895 308.225 360.111C309.274 360.537 310.201 360.963 311.113 361.373C312.026 361.784 312.786 362.21 313.394 362.65C314.048 363.091 314.565 363.578 314.914 364.095C315.294 364.612 315.492 365.22 315.492 365.919C315.492 366.406 315.373 366.862 315.142 367.287C314.911 367.713 314.549 368.078 314.063 368.382C313.576 368.686 312.983 368.929 312.239 369.112C311.524 369.279 310.718 369.37 309.654 369.37C307.982 369.37 306.309 369.081 304.789 368.504C303.116 367.926 301.596 367.059 300.228 365.919L300.517 365.852ZM287.746 347.152H297.476V340.919H270.262V347.152H279.992V374.974H287.746V347.152Z" fill="white"/>
<g filter="url(#filter8_b_415_11747)">
<rect x="282.627" y="440.791" width="78.7797" height="78.7797" rx="14.0678" fill="white" fill-opacity="0.1"/>
<rect x="282.158" y="440.322" width="79.7175" height="79.7175" rx="14.5367" stroke="white" stroke-opacity="0.2" stroke-width="0.937853"/>
</g>
<g clip-path="url(#clip2_415_11747)">
<path d="M322.093 453.657C307.025 453.657 294.818 465.874 294.818 480.932C294.818 492.989 302.633 503.208 313.462 506.814C314.831 507.071 315.326 506.227 315.326 505.498C315.326 504.85 315.31 503.137 315.3 500.863C307.709 502.506 306.11 497.196 306.11 497.196C304.867 494.052 303.074 493.209 303.074 493.209C300.606 491.523 303.27 491.559 303.27 491.559C306.004 491.744 307.443 494.363 307.443 494.363C309.876 498.536 313.825 497.329 315.389 496.627C315.627 494.869 316.338 493.66 317.112 492.987C311.057 492.303 304.69 489.96 304.69 479.508C304.69 476.523 305.747 474.093 307.494 472.183C307.193 471.5 306.269 468.721 307.735 464.964C307.735 464.964 310.017 464.236 315.235 467.761C317.419 467.156 319.737 466.855 322.054 466.839C324.372 466.855 326.689 467.158 328.872 467.761C334.06 464.236 336.341 464.964 336.341 464.964C337.805 468.721 336.881 471.498 336.615 472.183C338.345 474.093 339.402 476.525 339.402 479.508C339.402 489.983 333.027 492.293 326.965 492.96C327.913 493.776 328.801 495.455 328.801 498.004C328.801 501.652 328.767 504.591 328.767 505.479C328.767 506.188 329.244 507.04 330.649 506.766C341.559 503.198 349.364 492.97 349.364 480.93C349.364 465.873 337.157 453.655 322.09 453.655L322.093 453.657Z" fill="white"/>
</g>
<g filter="url(#filter9_b_415_11747)">
<rect x="129.756" y="416.407" width="78.7797" height="78.7797" rx="14.0678" fill="white" fill-opacity="0.1"/>
<rect x="129.287" y="415.938" width="79.7175" height="79.7175" rx="14.5367" stroke="white" stroke-opacity="0.2" stroke-width="0.937853"/>
</g>
<path d="M194.178 438.911L170.971 480.409C170.492 481.266 169.261 481.271 168.774 480.418L145.107 438.915C144.577 437.986 145.372 436.86 146.425 437.049L169.657 441.201C169.805 441.228 169.957 441.227 170.105 441.2L192.851 437.054C193.9 436.863 194.698 437.98 194.178 438.911V438.911Z" fill="url(#paint2_linear_415_11747)"/>
<path d="M180.723 431.602L163.549 434.967C163.412 434.994 163.288 435.066 163.196 435.171C163.104 435.276 163.049 435.409 163.041 435.549L161.985 453.391C161.979 453.489 161.996 453.587 162.034 453.677C162.073 453.767 162.132 453.847 162.207 453.91C162.282 453.973 162.37 454.018 162.466 454.041C162.561 454.064 162.66 454.065 162.756 454.043L167.537 452.939C167.985 452.836 168.389 453.23 168.297 453.68L166.876 460.636C166.781 461.105 167.22 461.505 167.677 461.366L170.631 460.469C171.089 460.33 171.529 460.731 171.432 461.2L169.174 472.126C169.033 472.81 169.942 473.183 170.321 472.597L170.574 472.205L184.569 444.277C184.803 443.81 184.399 443.277 183.885 443.376L178.963 444.326C178.501 444.415 178.108 443.984 178.238 443.532L181.45 432.396C181.581 431.942 181.186 431.511 180.723 431.602H180.723Z" fill="url(#paint3_linear_415_11747)"/>
<g filter="url(#filter10_b_415_11747)">
<rect x="104.435" y="254.158" width="78.7797" height="78.7797" rx="14.0678" fill="white" fill-opacity="0.1"/>
<rect x="103.966" y="253.689" width="79.7175" height="79.7175" rx="14.5367" stroke="white" stroke-opacity="0.2" stroke-width="0.937853"/>
</g>
<path d="M64 0C28.66 0 0 28.66 0 64s28.66 64 64 64h.002a63.994 63.994 0 0 0 35.506-10.838l.014-.008.37-.283-.568-.815-52.676-68.054v40.88h-7.552V39.097h9.943l56.229 72.425.64.819.371-.344.014-.012A64.002 64.002 0 0 0 128 64c0-35.34-28.66-64-64-64Zm0 .992c34.804 0 63.008 28.204 63.008 63.008a62.999 62.999 0 0 1-20.983 46.879l-56.5-72.775H38.104v51.771h9.537v-38.97l50.863 65.712A63 63 0 0 1 64 127.007C29.196 127.008.992 98.805.992 64S29.196.992 64 .992Zm17.143 37.112v37.94l9.46 12.423V38.104Zm.992.992h7.476v46.43l-7.476-9.815z" fill="white"  transform="translate(112, 262) scale(0.5)"/>
</g>
<defs>
<filter id="filter0_b_415_11747" x="50.0398" y="537.389" width="144.429" height="144.429" filterUnits="userSpaceOnUse" color-interpolation-filters="sRGB">
<feFlood flood-opacity="0" result="BackgroundImageFix"/>
<feGaussianBlur in="BackgroundImageFix" stdDeviation="15.9435"/>
<feComposite in2="SourceAlpha" operator="in" result="effect1_backgroundBlur_415_11747"/>
<feBlend mode="normal" in="SourceGraphic" in2="effect1_backgroundBlur_415_11747" result="shape"/>
</filter>
<filter id="filter1_b_415_11747" x="262.587" y="33.4182" width="143.491" height="143.492" filterUnits="userSpaceOnUse" color-interpolation-filters="sRGB">
<feFlood flood-opacity="0" result="BackgroundImageFix"/>
<feGaussianBlur in="BackgroundImageFix" stdDeviation="15.9435"/>
<feComposite in2="SourceAlpha" operator="in" result="effect1_backgroundBlur_415_11747"/>
<feBlend mode="normal" in="SourceGraphic" in2="effect1_backgroundBlur_415_11747" result="shape"/>
</filter>
<filter id="filter2_b_415_11747" x="98.2136" y="-7.15849" width="144.429" height="144.429" filterUnits="userSpaceOnUse" color-interpolation-filters="sRGB">
<feFlood flood-opacity="0" result="BackgroundImageFix"/>
<feGaussianBlur in="BackgroundImageFix" stdDeviation="15.9435"/>
<feComposite in2="SourceAlpha" operator="in" result="effect1_backgroundBlur_415_11747"/>
<feBlend mode="normal" in="SourceGraphic" in2="effect1_backgroundBlur_415_11747" result="shape"/>
</filter>
<filter id="filter3_b_415_11747" x="155.816" y="52.4409" width="29.0839" height="25.3818" filterUnits="userSpaceOnUse" color-interpolation-filters="sRGB">
<feFlood flood-opacity="0" result="BackgroundImageFix"/>
<feGaussianBlur in="BackgroundImageFix" stdDeviation="1.56517"/>
<feComposite in2="SourceAlpha" operator="in" result="effect1_backgroundBlur_415_11747"/>
<feBlend mode="normal" in="SourceGraphic" in2="effect1_backgroundBlur_415_11747" result="shape"/>
</filter>
<filter id="filter4_b_415_11747" x="382.2" y="300.273" width="145.005" height="145.006" filterUnits="userSpaceOnUse" color-interpolation-filters="sRGB">
<feFlood flood-opacity="0" result="BackgroundImageFix"/>
<feGaussianBlur in="BackgroundImageFix" stdDeviation="15.9435"/>
<feComposite in2="SourceAlpha" operator="in" result="effect1_backgroundBlur_415_11747"/>
<feBlend mode="normal" in="SourceGraphic" in2="effect1_backgroundBlur_415_11747" result="shape"/>
</filter>
<filter id="filter5_b_415_11747" x="177.588" y="133.175" width="144.429" height="144.429" filterUnits="userSpaceOnUse" color-interpolation-filters="sRGB">
<feFlood flood-opacity="0" result="BackgroundImageFix"/>
<feGaussianBlur in="BackgroundImageFix" stdDeviation="15.9435"/>
<feComposite in2="SourceAlpha" operator="in" result="effect1_backgroundBlur_415_11747"/>
<feBlend mode="normal" in="SourceGraphic" in2="effect1_backgroundBlur_415_11747" result="shape"/>
</filter>
<filter id="filter6_b_415_11747" x="327.796" y="183.97" width="144.429" height="144.429" filterUnits="userSpaceOnUse" color-interpolation-filters="sRGB">
<feFlood flood-opacity="0" result="BackgroundImageFix"/>
<feGaussianBlur in="BackgroundImageFix" stdDeviation="15.9435"/>
<feComposite in2="SourceAlpha" operator="in" result="effect1_backgroundBlur_415_11747"/>
<feBlend mode="normal" in="SourceGraphic" in2="effect1_backgroundBlur_415_11747" result="shape"/>
</filter>
<filter id="filter7_b_415_11747" x="219.791" y="271.039" width="143.491" height="143.492" filterUnits="userSpaceOnUse" color-interpolation-filters="sRGB">
<feFlood flood-opacity="0" result="BackgroundImageFix"/>
<feGaussianBlur in="BackgroundImageFix" stdDeviation="15.9435"/>
<feComposite in2="SourceAlpha" operator="in" result="effect1_backgroundBlur_415_11747"/>
<feBlend mode="normal" in="SourceGraphic" in2="effect1_backgroundBlur_415_11747" result="shape"/>
</filter>
<filter id="filter8_b_415_11747" x="249.802" y="407.966" width="144.429" height="144.429" filterUnits="userSpaceOnUse" color-interpolation-filters="sRGB">
<feFlood flood-opacity="0" result="BackgroundImageFix"/>
<feGaussianBlur in="BackgroundImageFix" stdDeviation="15.9435"/>
<feComposite in2="SourceAlpha" operator="in" result="effect1_backgroundBlur_415_11747"/>
<feBlend mode="normal" in="SourceGraphic" in2="effect1_backgroundBlur_415_11747" result="shape"/>
</filter>
<filter id="filter9_b_415_11747" x="96.9314" y="383.582" width="144.429" height="144.429" filterUnits="userSpaceOnUse" color-interpolation-filters="sRGB">
<feFlood flood-opacity="0" result="BackgroundImageFix"/>
<feGaussianBlur in="BackgroundImageFix" stdDeviation="15.9435"/>
<feComposite in2="SourceAlpha" operator="in" result="effect1_backgroundBlur_415_11747"/>
<feBlend mode="normal" in="SourceGraphic" in2="effect1_backgroundBlur_415_11747" result="shape"/>
</filter>
<filter id="filter10_b_415_11747" x="71.6101" y="221.333" width="144.429" height="144.429" filterUnits="userSpaceOnUse" color-interpolation-filters="sRGB">
<feFlood flood-opacity="0" result="BackgroundImageFix"/>
<feGaussianBlur in="BackgroundImageFix" stdDeviation="15.9435"/>
<feComposite in2="SourceAlpha" operator="in" result="effect1_backgroundBlur_415_11747"/>
<feBlend mode="normal" in="SourceGraphic" in2="effect1_backgroundBlur_415_11747" result="shape"/>
</filter>
<filter id="filter11_b_415_11747" x="290.131" y="527.073" width="144.429" height="144.429" filterUnits="userSpaceOnUse" color-interpolation-filters="sRGB">
<feFlood flood-opacity="0" result="BackgroundImageFix"/>
<feGaussianBlur in="BackgroundImageFix" stdDeviation="15.9435"/>
<feComposite in2="SourceAlpha" operator="in" result="effect1_backgroundBlur_415_11747"/>
<feBlend mode="normal" in="SourceGraphic" in2="effect1_backgroundBlur_415_11747" result="shape"/>
</filter>
<radialGradient id="paint0_radial_415_11747" cx="0" cy="0" r="1" gradientUnits="userSpaceOnUse" gradientTransform="translate(332 332.938) rotate(90) scale(349.759)">
<stop stop-color="white"/>
<stop offset="1" stop-color="white" stop-opacity="0"/>
</radialGradient>
<linearGradient id="paint1_linear_415_11747" x1="141.949" y1="-81.5932" x2="363.282" y2="699.638" gradientUnits="userSpaceOnUse">
<stop offset="0.416946"/>
<stop offset="0.880782" stop-opacity="0.02"/>
</linearGradient>
<linearGradient id="paint2_linear_415_11747" x1="144.529" y1="440.397" x2="169.558" y2="474.388" gradientUnits="userSpaceOnUse">
<stop stop-color="white" stop-opacity="0"/>
<stop offset="1" stop-color="white"/>
</linearGradient>
<linearGradient id="paint3_linear_415_11747" x1="171.81" y1="432.516" x2="176.958" y2="467.836" gradientUnits="userSpaceOnUse">
<stop offset="0.0001" stop-color="white"/>
</linearGradient>
<clipPath id="clip0_415_11747">
<rect width="54.3955" height="54.3955" fill="white" transform="translate(95.0557 582.407)"/>
</clipPath>
<clipPath id="clip1_415_11747">
<rect width="60.0226" height="60.0226" fill="white" transform="translate(370.055 226.116) rotate(0.109914)"/>
</clipPath>
<clipPath id="clip2_415_11747">
<rect width="54.5493" height="54.5493" fill="white" transform="translate(294.818 452.982)"/>
</clipPath>
</defs>
</svg>
